<svg xmlns="http://www.w3.org/2000/svg" viewBox="0 0 1200 675" role="img" aria-labelledby="title description">
  <title id="title">Steady English progress</title>
  <desc id="description">Branded illustration of steps leading to a target</desc>
  <rect width="1200" height="675" fill="#FBF9FC"/>
  <circle cx="976" cy="162" r="124" fill="#EEE7F4"/>
  <path d="M88 584h226V477h205V367h205V258h205V151h183" fill="none" stroke="#391B68" stroke-width="34" stroke-linejoin="round"/>
  <path d="M220 513c101-57 205-104 310-101 161 4 224-120 340-187" fill="none" stroke="#EC911F" stroke-width="18" stroke-linecap="round" stroke-dasharray="1 35"/>
  <circle cx="935" cy="189" r="98" fill="#FFFFFF" stroke="#391B68" stroke-width="16"/>
  <circle cx="935" cy="189" r="58" fill="#EEE7F4" stroke="#391B68" stroke-width="12"/>
  <circle cx="935" cy="189" r="22" fill="#EC911F"/>
  <path d="m876 247 63-63 86-86" fill="none" stroke="#EC911F" stroke-width="18" stroke-linecap="round"/>
  <path d="m996 91 37 1-1 37" fill="none" stroke="#EC911F" stroke-width="18" stroke-linecap="round" stroke-linejoin="round"/>
  <rect x="148" y="217" width="230" height="138" rx="32" fill="#EEE7F4"/>
  <path d="m207 286 35 35 75-78" fill="none" stroke="#391B68" stroke-width="18" stroke-linecap="round" stroke-linejoin="round"/>
</svg>
